<?xml version="1.0" standalone="no"?>
<!DOCTYPE svg PUBLIC "-//W3C//DTD SVG 20010904//EN"
 "http://www.w3.org/TR/2001/REC-SVG-20010904/DTD/svg10.dtd">
<svg version="1.0" xmlns="http://www.w3.org/2000/svg"
 width="700.000000pt" height="700.000000pt" viewBox="0 0 700.000000 700.000000"
 preserveAspectRatio="xMidYMid meet">
<metadata>
Created by potrace 1.14, written by Peter Selinger 2001-2017
</metadata>
<g transform="translate(0.000000,700.000000) scale(0.100000,-0.100000)"
fill="#000000" stroke="none">
<path d="M3830 6986 c-143 -40 -256 -144 -307 -281 -17 -48 -18 -171 -21
-3170 -2 -2274 0 -3136 8 -3179 32 -168 155 -297 325 -342 67 -18 2732 -21
2817 -3 133 28 251 122 307 244 42 94 41 -33 41 3237 0 2269 -3 3121 -11 3160
-33 155 -164 294 -315 335 -16 4 -652 9 -1414 10 -1089 1 -1395 -1 -1430 -11z
m2583 -435 c86 -29 147 -114 147 -206 0 -86 -44 -156 -123 -197 l-42 -22
-1134 -1 c-1240 0 -1184 -3 -1250 58 -88 83 -95 211 -16 305 34 41 75 62 133
71 25 3 541 6 1146 5 859 -1 1109 -4 1139 -13z m32 -890 c85 -50 129 -136 113
-224 -16 -88 -67 -149 -147 -176 -48 -16 -2268 -16 -2322 0 -154 47 -200 250
-83 364 67 65 14 63 1264 61 l1135 -1 40 -24z m-2208 -4802 c119 -45 171 -192
108 -306 -36 -67 -91 -104 -164 -110 -71 -7 -120 8 -168 50 -46 40 -73 99 -73
160 0 155 152 261 297 206z m891 -8 c77 -40 119 -109 119 -196 0 -133 -121
-235 -251 -212 -108 19 -180 106 -180 217 0 159 171 264 312 191z"/>
<path d="M607 6124 c-1 -1 -22 -4 -48 -7 -51 -6 -155 -39 -208 -67 -137 -69
-259 -214 -317 -375 l-29 -80 -2 -1630 c-2 -1801 -5 -1700 62 -1840 44 -90 55
-105 142 -191 54 -53 94 -82 155 -112 154 -74 103 -71 1237 -72 557 0 1016 -2
1020 -4 3 -2 6 -199 6 -438 l0 -433 -135 -1 c-146 0 -178 -9 -234 -60 -63 -59
-84 -169 -47 -249 22 -49 77 -99 128 -116 45 -14 711 -20 720 -5 5 7 8 1620 4
1723 l-1 21 -1225 0 c-1180 1 -1226 1 -1267 20 -52 23 -101 76 -119 129 -19
58 -18 3156 1 3204 23 58 60 97 112 122 l51 24 1219 0 c670 0 1222 3 1225 7 5
4 8 398 4 426 -1 4 -2449 8 -2454 4z"/>
</g>
</svg>
